<mxfile host="app.diagrams.net" agent="Mozilla/5.0 (Windows NT 10.0; Win64; x64; rv:143.0) Gecko/20100101 Firefox/143.0" version="28.2.0">
  <diagram name="Overtime Flow" id="HFjph0O6Kdc8xGvgqDXJ">
    <mxGraphModel dx="1042" dy="571" grid="1" gridSize="10" guides="1" tooltips="1" connect="1" arrows="1" fold="1" page="1" pageScale="1" pageWidth="827" pageHeight="1169" math="0" shadow="0">
      <root>
        <mxCell id="0" />
        <mxCell id="1" parent="0" />
        <mxCell id="3p-4eoCmtaqQqgszuCm3-14" style="edgeStyle=orthogonalEdgeStyle;rounded=0;orthogonalLoop=1;jettySize=auto;html=1;fillColor=#f5f5f5;strokeColor=#666666;gradientColor=#b3b3b3;" edge="1" parent="1" source="3p-4eoCmtaqQqgszuCm3-15" target="3p-4eoCmtaqQqgszuCm3-17">
          <mxGeometry relative="1" as="geometry" />
        </mxCell>
        <mxCell id="3p-4eoCmtaqQqgszuCm3-15" value="Начало" style="ellipse;whiteSpace=wrap;html=1;" vertex="1" parent="1">
          <mxGeometry x="349" y="40" width="130" height="50" as="geometry" />
        </mxCell>
        <mxCell id="3p-4eoCmtaqQqgszuCm3-16" style="edgeStyle=orthogonalEdgeStyle;rounded=0;orthogonalLoop=1;jettySize=auto;html=1;fillColor=#f5f5f5;strokeColor=#666666;gradientColor=#b3b3b3;" edge="1" parent="1" source="3p-4eoCmtaqQqgszuCm3-17" target="3p-4eoCmtaqQqgszuCm3-19">
          <mxGeometry relative="1" as="geometry" />
        </mxCell>
        <mxCell id="3p-4eoCmtaqQqgszuCm3-17" value="int workplaceNumberA, workplaceNumberB, condition" style="shape=parallelogram;perimeter=parallelogramPerimeter;whiteSpace=wrap;html=1;fixedSize=1;fillColor=#6a00ff;strokeColor=#3700CC;fontColor=#ffffff;" vertex="1" parent="1">
          <mxGeometry x="249" y="120" width="330" height="60" as="geometry" />
        </mxCell>
        <mxCell id="3p-4eoCmtaqQqgszuCm3-18" style="edgeStyle=orthogonalEdgeStyle;rounded=0;orthogonalLoop=1;jettySize=auto;html=1;fillColor=#f5f5f5;strokeColor=#666666;gradientColor=#b3b3b3;" edge="1" parent="1" source="3p-4eoCmtaqQqgszuCm3-19">
          <mxGeometry relative="1" as="geometry">
            <mxPoint x="414" y="300" as="targetPoint" />
          </mxGeometry>
        </mxCell>
        <mxCell id="3p-4eoCmtaqQqgszuCm3-19" value="condition = ((workplaceNumberA % 2 == 0 &amp;amp;&amp;amp; workplaceNumberB % 2 != 0) ||&lt;br&gt;&amp;nbsp; &amp;nbsp; (workplaceNumberA % 2 != 0 &amp;amp;&amp;amp; workplaceNumberB % 2 == 0));" style="rounded=0;whiteSpace=wrap;html=1;fillColor=#e3c800;fontColor=#000000;strokeColor=#B09500;" vertex="1" parent="1">
          <mxGeometry x="193" y="220" width="442" height="50" as="geometry" />
        </mxCell>
        <mxCell id="3p-4eoCmtaqQqgszuCm3-20" value="Конец" style="ellipse;whiteSpace=wrap;html=1;" vertex="1" parent="1">
          <mxGeometry x="349" y="400" width="130" height="50" as="geometry" />
        </mxCell>
        <mxCell id="3p-4eoCmtaqQqgszuCm3-23" style="edgeStyle=orthogonalEdgeStyle;rounded=0;orthogonalLoop=1;jettySize=auto;html=1;fillColor=#f5f5f5;strokeColor=#666666;gradientColor=#b3b3b3;" edge="1" parent="1" source="3p-4eoCmtaqQqgszuCm3-24" target="3p-4eoCmtaqQqgszuCm3-20">
          <mxGeometry relative="1" as="geometry" />
        </mxCell>
        <mxCell id="3p-4eoCmtaqQqgszuCm3-24" value="condition" style="shape=parallelogram;perimeter=parallelogramPerimeter;whiteSpace=wrap;html=1;fixedSize=1;fillColor=#6a00ff;fontColor=#ffffff;strokeColor=#3700CC;" vertex="1" parent="1">
          <mxGeometry x="341" y="300" width="146" height="60" as="geometry" />
        </mxCell>
      </root>
    </mxGraphModel>
  </diagram>
</mxfile>
